<svg xmlns="http://www.w3.org/2000/svg" width="775.04041pt" height="600pt" fill-rule="evenodd" viewBox="0 0 775.04041 599.99999"><path d="M445.865 53.371c-48.492 49.708-102.779 64.352-161.945 43.613-3.965-1.22-7.625-2.744-11.59-4.27l1.53 147.612v.305c3.35.305 6.71.304 10.06.61v31.718c-3.656 0-6.71.305-9.756.305l.606 54.591c1.83-2.44 6.1 2.135 9.15 2.44v43.613c-.915 0-1.831.305-2.746.305.61 3.05 1.526 6.1 2.746 8.84 24.094 72.59 94.545 109.799 165.605 111.324 71.98 1.22 144.257-34.158 169.266-106.744 2.135-5.795 3.963-12.199 5.488-18.908l-5.488-.916V323.89c1.83 3.354 6.099-1.525 9.148-2.135l-.914-53.98h-8.234v-32.024c2.745-.305 5.49-.611 7.93-.916L624.279 86.92l-5.488 1.83c-61.911 21.959-118.944 15.249-169.266-32.023-1.22-1.22-2.44-2.136-3.66-3.356z" style="fill:#fff;fill-opacity:1;fill-rule:evenodd;stroke:none;stroke-width:20;stroke-linejoin:round" transform="matrix(.85714 0 0 .85714 0 0)"/><path d="M793.545 0c7.93 9.454 16.774 18.91 16.164 29.889 21.044 6.71 25.619 20.128 30.193 36.597-.915-2.135-4.573-3.354-7.013-2.744 5.184 8.235 11.284 23.483 10.064 34.768-2.135-1.83-3.965-1.525-5.795-2.135 4.88 16.164 4.27 28.362 2.135 43.611-1.525-1.83-3.356-3.354-4.88-4.879 1.524 17.08-1.22 30.5-6.1 41.784 0-4.575-.916-7.016-3.965-8.846-.61 10.37-2.44 17.385-6.71 23.785-1.22-4.875-1.83-6.401-5.794-9.756 2.135 14.03-.914 19.215-7.014 31.719-1.22-5.49-1.83-7.625-8.234-9.76 3.355 9.455 1.523 17.384-2.442 24.703-5.184-3.354 0-6.71-6.709-14.029-3.355 22.264 4.576 41.17 29.28 51.543 35.073 14.33 58.25 31.412 65.875 51.846 14.334-1.83 5.49-38.731 2.134-46.051-12.809-29.283-29.583-40.868-28.363-74.416 1.37 4.338 3.595 4.915 5.395 6.723-5.19-8.934-7.198-25.874-6.92-37.532 1.83 6.104 2.441 4.276 6.406 10.375-6.71-22.263.914-35.993-7.32-59.168 19.205 16.767 34.448 38.715 36.593 68.584.428-.379 3.524-2.798 4.579-7.285 7.929 29.283-4.88 67.71 3.964 93.938 5.49 17.994 7.32 26.838 1.83 44.527-2.134 5.185-6.404 10.37-8.234 15.555-.915 39.647-4.574 45.743-30.498 70.45-7.015 11.895-6.405 11.286.305 25.62-19.214 36.903-39.038 73.5-62.522 107.658 1.22 4.88 6.101 9.454 4.576 14.944-1.83 3.66-8.234 4.575-11.894 7.015-.915.606-1.832 1.825-2.442 3.354.915 6.404 1.831 12.81 3.356 19.824-19.214-4.27-43.307 8.234-47.272 2.74-1.22-.606-1.22-1.826-1.22-4.265 3.05-14.335 12.199-26.532 32.328-34.157 9.15-32.023 17.993-64.352 26.838-96.375-.61-4.579 1.83-10.064-.914-18.299-12.505 17.994-28.974 28.363-50.018 30.803-27.753 3.355-55.2 7.32-61.91 18.604.61 5.49 10.368 19.824 1.219 16.16-4.88-4.266-10.064-3.656-14.639-2.131-1.525 6.405 3.355 13.115 5.49 17.08-4.27 10.06-27.755 13.42-38.734 20.434-5.185-20.74-.305-35.992 6.1-50.932 20.738-27.448 57.947-38.428 95.765-52.152 5.185-2.444 5.185-6.405 3.356-9.46-15.555-31.713-19.825-59.467 2.439-82.95-21.349-8.54-40.868-19.824-56.117-36.903-6.1-7.019-10.065-13.725-13.725-22.875-12.504-3.05-22.263-6.405-34.767-7.93l.914 60.083c.61 43.612-10.673 79.6-29.887 108.27-36.903 55.2-103.39 82.04-169.266 80.82-64.96-1.22-129.312-29.584-165.605-84.485-18.299-27.75-29.584-61.907-29.889-103.08l-.61-55.201c-11.28 2.44-20.74 5.79-32.939 9.148-3.05 9.455-7.014 16.47-12.808 23.79-14.334 17.688-33.549 29.887-54.283 39.036 23.174 22.565 20.125 50.323 5.79 82.65-1.83 3.347-1.219 7.321 3.66 9.456 38.429 12.2 76.247 21.654 98.21 48.187 7.01 14.64 12.195 29.888 8.23 50.627-11.59-6.404-35.073-8.845-39.949-18.91 2.13-3.965 6.71-10.983 4.875-17.078-4.57-1.22-9.76-1.83-14.334 2.44-9.145 4.265 0-10.675.305-16.165-7.015-10.979-34.764-13.724-62.522-15.859-21.044-1.53-37.512-10.37-51.236-28.059-2.135 7.93.305 13.11 0 17.69 10.064 31.718 20.129 63.436 30.498 95.154 20.434 7.015 30.194 18.605 33.853 32.94.305 2.135 0 3.66-1.22 4.27-3.35 5.489-28.058-5.797-46.967-.917.915-7.014 1.83-13.42 2.44-19.824-.61-1.53-1.525-2.744-2.44-3.354-3.965-2.44-10.37-2.744-12.504-6.404-1.525-5.795 3.05-10.37 4.27-14.945-25.009-33.548-46.357-69.231-67.096-105.219 6.1-14.64 6.708-14.03-.916-25.62-26.839-23.487-30.802-29.277-33.242-69.23-2.135-5.188-6.711-9.758-8.846-14.943-6.405-17.384-4.88-26.228 0-44.832 7.625-26.533-7.014-64.352-.305-93.935 1.32 4.485 4.453 6.906 4.883 7.283.926-29.87 15.254-52.733 33.85-70.11-7.32 23.179.915 36.903-4.88 59.162 3.66-5.79 4.27-4.265 6.1-10.365.849 11.88-.67 29.253-5.76 38.04 1.845-2.062 4.235-2.6 5.456-7.237 2.44 33.243-13.725 45.749-25.315 75.332-3.05 7.625-10.369 44.83 3.965 46.05 7.015-20.738 29.584-38.732 63.742-54.591 24.399-11.289 31.413-30.498 27.143-52.457-6.405 7.32-.915 10.37-6.1 14.03-4.27-7.015-6.405-14.644-3.66-24.704-6.1 2.745-6.708 4.575-7.623 10.37-6.71-12.2-9.76-17.384-8.234-31.413-3.965 3.66-4.576 4.88-5.49 10.06-4.27-6.4-6.71-13.114-7.93-23.784-2.745 2.134-3.66 4.575-3.66 9.15-4.88-10.984-8.235-24.404-7.625-41.479-1.22 1.525-3.05 3.354-4.575 5.18-2.744-15.245-3.965-27.443.305-43.607-1.83.61-3.658.304-5.488 2.44-2.135-11.59 3.66-26.84 8.539-35.384-2.745-.305-6.406.92-7.016 3.055 3.965-16.469 7.624-30.194 28.668-38.123-1.22-10.674 7.321-20.434 14.64-30.193 1.83 14.635 5.49 25.314 12.81 35.683 9.149-12.2 23.792-11.59 32.328-8.85-6.1 4.275-12.199 10.68-12.809 19.829 16.778 11.589 27.142 20.434 43.916 31.715 21.349 1.529 32.023 18.303 23.793 39.347l-16.473-9.15 5.186 9.76c-17.69 4.88-17.69 1.525-28.059-10.674-6.71-5.49-12.2-3.355-17.08-1.83 4.575 27.143 28.67 38.732 47.274 49.101 28.062 15.554 38.122 38.428 36.902 58.252v4.57c11.894-9.755 19.823-15.55 27.143-17.99l-1.524-144.56c10.98 4.574 21.654 8.234 32.633 10.674 58.557 13.419 112.233-4.575 161.34-54.592 1.215 1.22 2.74 2.745 4.265 3.965 50.932 47.577 107.66 58.252 169.266 41.783 8.54-2.44 17.077-5.186 25.922-8.541l2.135 149.746c8.54-.61 16.166 3.356 28.365 12.81 0-1.83-.307-3.355-.307-5.49-1.83-19.519 7.015-43.001 34.463-59.775 17.994-10.98 41.784-23.79 45.443-50.934-5.184-1.22-10.675-3.355-17.08 2.44-10.064 12.504-10.063 16.164-27.752 11.894l4.88-10.064-16.165 9.76c-9.15-20.434.915-37.514 22.264-39.954 16.164-12.199 25.924-21.347 42.393-33.851-.915-9.15-7.32-15.25-13.725-19.215 8.54-3.05 23.18-4.269 32.635 7.32C789.276 25.618 792.325 14.94 793.545 0Z" style="fill:#fff;fill-opacity:1;fill-rule:evenodd;stroke:none;stroke-width:20;stroke-linejoin:round" transform="matrix(.85714 0 0 .85714 0 0)"/><path d="M445.865 53.371c-48.492 49.708-102.778 64.352-161.945 43.613-3.965-1.22-7.625-2.744-11.59-4.27l1.53 147.612v.305c3.35.305 6.71.304 10.06.61v31.718c-3.656 0-6.71.305-9.756.305l.606 54.591c1.83-2.44 6.1 2.135 9.15 2.44v43.613c-.915 0-1.831.305-2.746.305.61 3.05 1.526 6.1 2.746 8.84 24.094 72.59 94.545 109.799 165.605 111.324 71.98 1.22 144.257-34.158 169.266-106.744 2.135-5.795 3.963-12.199 5.488-18.908l-5.488-.916V323.89c1.83 3.354 6.099-1.525 9.148-2.135l-.914-53.98h-8.234v-32.024c2.745-.305 5.49-.611 7.93-.916L624.279 86.92l-5.488 1.83c-61.911 21.959-118.944 15.249-169.266-32.023-1.22-1.22-2.44-2.136-3.66-3.356z" style="fill:#fff;fill-opacity:1;fill-rule:evenodd;stroke:none;stroke-width:20;stroke-linejoin:round" transform="matrix(.85714 0 0 .85714 0 0)"/><path d="m647.764 269.604.914 60.082c.61 43.612-10.673 79.6-29.887 108.27-36.903 55.2-103.39 82.04-169.266 80.82-64.96-1.22-129.312-29.584-165.605-84.485-18.299-27.75-29.584-61.907-29.889-103.08l-.61-55.201-.61-63.438-1.524-144.56c10.98 4.574 21.654 8.234 32.633 10.674 58.557 13.419 112.233-4.575 161.34-54.592 1.215 1.22 2.74 2.745 4.265 3.965 50.932 47.577 107.66 58.252 169.266 41.783 8.54-2.44 17.077-5.186 25.922-8.541l2.135 149.746z" style="fill:#fff;fill-opacity:1;fill-rule:evenodd;stroke:none;stroke-width:20;stroke-linejoin:round" transform="matrix(.85714 0 0 .85714 0 0)"/><path d="m204.248 69.536 1.147 110.937s-.788 79.75 5.486 100.187c6.274 20.437 28.513 87.152 126.263 90.122 103.189 1.001 124.792-71.934 131.066-94.24 6.274-22.304 2.945-89.572 1.83-100.415-1.115-10.842-1.83-110.937-1.83-110.937L334.628 266.25Z" style="fill:#94a6a6;stroke:none;stroke-width:3.1769" transform="matrix(1.14286 0 0 1.14286 0 0)"/><path d="M595.159 0c-.915 11.205-3.202 19.214-8.463 26.991-7.09-8.692-18.071-7.777-24.476-5.49 4.804 2.974 9.607 7.549 10.294 14.411-12.352 9.378-19.672 16.24-31.795 25.389-16.011 1.83-23.56 14.64-16.698 29.965l12.124-7.32-3.66 7.548c13.267 3.202 13.266.457 20.814-8.92 4.804-4.347 8.922-2.745 12.81-1.83-2.744 20.357-20.587 29.965-34.082 38.2-20.586 12.58-27.22 30.192-25.847 44.831 0 1.602.23 2.746.23 4.118-9.15-7.09-14.87-10.065-21.274-9.608l-1.601-112.31c-6.634 2.517-13.037 4.576-19.442 6.406-46.205 12.352-88.75 4.346-126.949-31.337-1.144-.915-2.287-2.059-3.2-2.974-36.829 37.513-77.087 51.009-121.004 40.944-8.235-1.83-16.24-4.574-24.475-8.005l1.143 108.42c-5.49 1.83-11.436 6.176-20.357 13.493v-3.428c.915-14.868-6.63-32.023-27.677-43.689-13.953-7.777-32.024-16.468-35.455-36.826 3.66-1.144 7.778-2.745 12.81 1.373 7.777 9.149 7.777 11.665 21.044 8.005l-3.889-7.32 12.354 6.863c6.173-15.783-1.833-28.364-17.844-29.51-12.58-8.46-20.354-15.095-32.937-23.787.457-6.862 5.031-11.666 9.606-14.871-6.401-2.056-17.384-2.512-24.246 6.637-5.49-7.777-8.234-15.786-9.606-26.763-5.49 7.32-11.896 14.64-10.98 22.645C46.646 38.2 43.902 48.492 40.928 60.844c.458-1.601 3.203-2.52 5.262-2.291-3.66 6.408-8.006 17.845-6.404 26.537 1.372-1.601 2.743-1.372 4.116-1.83-3.202 12.123-2.287 21.272-.229 32.706 1.144-1.37 2.516-2.741 3.431-3.885-.457 12.806 2.059 22.871 5.719 31.109 0-3.431.686-5.262 2.745-6.863.915 8.003 2.745 13.039 5.947 17.839.686-3.885 1.144-4.8 4.118-7.545-1.144 10.521 1.143 14.41 6.176 23.559.686-4.346 1.142-5.719 5.717-7.777-2.059 7.545-.457 13.266 2.745 18.527 3.889-2.745-.229-5.032 4.575-10.522 3.202 16.47-2.058 30.877-20.357 39.343-25.619 11.894-42.546 25.39-47.807 40.944-10.75-.915-5.26-28.82-2.974-34.538 8.692-22.188 20.816-31.567 18.986-56.5-.915 3.478-2.707 3.882-4.091 5.428 3.817-6.59 4.956-19.62 4.32-28.53-1.373 4.575-1.83 3.432-4.575 7.775 4.346-16.695-1.83-26.988 3.66-44.372C18.06 112.991 7.314 130.138 6.62 152.54c-.322-.283-2.673-2.099-3.662-5.462-5.032 22.187 5.947 50.551.228 70.451-3.66 13.953-4.803 20.586 0 33.624 1.602 3.889 5.034 7.316 6.635 11.208 1.83 29.964 4.803 34.307 24.931 51.923 5.719 8.692 5.262 8.235.687 19.214 15.555 26.991 31.566 53.753 50.322 78.914-.915 3.431-4.346 6.863-3.202 11.21 1.601 2.744 6.404 2.972 9.378 4.802.686.458 1.372 1.369 1.83 2.515-.458 4.804-1.144 9.608-1.83 14.869 14.182-3.66 32.712 4.804 35.225.687.915-.458 1.144-1.601.916-3.203-2.745-10.75-10.065-19.443-25.39-24.704-7.778-23.789-15.326-47.577-22.874-71.366.229-3.434-1.601-7.32 0-13.267 10.293 13.267 22.644 19.897 38.427 21.044 20.818 1.601 41.63 3.66 46.891 11.895-.228 4.117-7.087 15.322-.228 12.123 3.43-3.203 7.322-2.745 10.75-1.83 1.376 4.572-2.058 9.835-3.656 12.809 3.657 7.548 21.27 9.379 29.962 14.182 2.974-15.554-.915-26.99-6.173-37.97-16.472-19.9-44.836-26.991-73.657-36.14-3.66-1.602-4.117-4.582-2.745-7.092 10.75-24.246 13.038-45.064-4.343-61.988 15.55-6.862 29.962-16.01 40.712-29.278 4.346-5.49 7.32-10.75 9.607-17.841 9.15-2.52 16.244-5.032 24.704-6.862l.457 41.401c.23 30.88 8.693 56.498 22.417 77.31 27.22 41.176 75.483 62.449 124.204 63.364 49.407.914 99.272-19.214 126.95-60.616 14.41-21.501 22.872-48.492 22.414-81.202l-.685-45.061c9.378 1.143 16.697 3.66 26.075 5.947 2.745 6.862 5.72 11.892 10.294 17.156 11.437 12.81 26.076 21.272 42.088 27.677-16.698 17.613-13.495 38.428-1.83 62.213 1.373 2.29 1.372 5.261-2.516 7.095-28.364 10.293-56.27 18.527-71.825 39.114-4.803 11.205-8.463 22.644-4.574 38.199 8.234-5.261 25.848-7.78 29.05-15.326-1.6-2.973-5.26-8.006-4.117-12.81 3.43-1.143 7.319-1.6 10.979 1.598 6.862 2.748-.457-8.002-.914-12.12 5.032-8.463 25.617-11.436 46.432-13.952 15.783-1.83 28.135-9.607 37.514-23.102 2.058 6.175.228 10.29.685 13.724-6.633 24.017-13.266 48.264-20.128 72.281-15.097 5.718-21.96 14.867-24.246 25.617 0 1.83 0 2.745.915 3.2 2.974 4.12 21.043-5.258 35.454-2.056-1.144-5.26-1.83-10.064-2.517-14.868.458-1.147 1.145-2.06 1.831-2.515 2.745-1.83 7.549-2.517 8.921-5.262 1.144-4.117-2.517-7.548-3.432-11.207 17.613-25.619 32.48-53.067 46.891-80.744-5.032-10.75-5.49-10.294-.228-19.214 19.442-18.531 22.187-23.103 22.873-52.839 1.372-3.888 4.575-7.777 6.176-11.666 4.117-13.266 2.745-19.9-1.373-33.395-6.633-19.672 2.974-48.491-2.973-70.453-.791 3.364-3.113 5.18-3.434 5.463-1.609-22.401-13.04-38.862-27.445-51.437 6.176 17.38.458 27.678 5.49 44.375-2.974-4.574-3.432-3.203-4.805-7.78-.208 8.743 1.298 21.447 5.19 28.148-1.35-1.356-3.018-1.789-4.046-5.042-.915 25.16 11.666 33.85 21.273 55.812 2.516 5.49 9.15 33.165-1.601 34.538-5.719-15.326-23.102-28.137-49.407-38.884-18.527-7.78-24.475-21.96-21.959-38.658 5.032 5.49 1.143 8.006 5.032 10.522 2.973-5.49 4.347-11.436 1.83-18.527 4.804 1.601 5.262 3.202 6.177 7.32 4.574-9.378 6.861-13.267 5.26-23.79 2.973 2.517 3.431 3.66 4.346 7.318 3.202-4.8 4.574-10.062 5.032-17.84 2.287 1.373 2.973 3.204 2.973 6.635 3.66-8.463 5.719-18.528 4.575-31.337 1.144 1.143 2.517 2.286 3.66 3.659 1.602-11.437 2.06-20.586-1.6-32.709 1.372.458 2.745.229 4.346 1.601.915-8.463-3.66-19.9-7.549-26.075 1.83-.458 4.575.457 5.26 2.058-3.43-12.352-6.861-22.416-22.644-27.448.457-8.235-6.176-15.326-12.123-22.417Zm-260.76 40.028c.915.915 1.83 1.602 2.745 2.517 37.742 35.454 80.516 40.487 126.95 24.017l4.115-1.372 1.832 110.937c-1.83.229-3.89.458-5.948.687v24.018h6.176l.686 40.485c-2.288.457-5.49 4.117-6.862 1.601v32.938l4.116.687c-1.143 5.033-2.515 9.836-4.116 14.182-18.756 54.439-72.964 80.973-126.949 80.058-53.296-1.144-106.134-29.05-124.204-83.493-.915-2.056-1.602-4.343-2.06-6.63.687 0 1.374-.229 2.06-.229v-32.71c-2.287-.229-5.49-3.66-6.863-1.83l-.454-40.943c2.284 0 4.575-.229 7.317-.229V180.93c-2.513-.229-5.033-.228-7.545-.457v-.228l-1.147-110.709c2.973 1.144 5.718 2.287 8.692 3.202 44.375 15.554 85.09 4.571 121.459-32.71z" style="fill:#004557;stroke:none;stroke-width:3.1769" transform="matrix(1.14286 0 0 1.14286 0 0)"/><path d="M464.093 233.083v7.548c.686-2.287 2.058-5.26.686-6.862l-.686-.686zM464.093 200.83v-24.016c-6.405.914-12.58 1.6-18.985 2.744-4.346.458-7.32 5.948-6.634 9.379 2.288 22.645 3.66 56.726 7.32 67.934 4.117 11.895 10.98 16.927 18.299 18.986V242.69c-.23-.687 0-1.144 0-2.059v-7.548c-1.144-1.601-2.288-1.144-5.719.457-.686-10.064-.457-15.554-.915-26.076 1.144-4.346 2.059-6.179 5.947-6.633h.687zM212.94 247.722v32.71c8.234-1.83 16.697-6.863 20.586-20.358 3.202-11.44 3.202-45.748 4.346-68.396.686-3.428-2.516-8.689-6.862-8.92-5.947-.912-12.123-1.37-18.07-1.827v23.788h.686c3.888.23 4.803 2.288 6.179 6.399 0 10.528.454 15.789.226 26.082-3.889-1.601-5.03-2.059-6.405.458-1.601 2.284 1.375 6.404 1.147 8.92-.46.915-1.147 1.373-1.833 1.144z" style="fill:#004557;stroke:none;stroke-width:3.1769" transform="matrix(1.14286 0 0 1.14286 0 0)"/><path d="M673.616 399.832v-5.49c-1.144-11.897-10.294-19.671-26.534-18.985-31.108 1.144-32.48 29.278-41.173 48.95-10.064 13.495-24.017 22.873-42.773 16.24-11.895-5.49-16.698-12.352-19.672-25.847-2.973-13.728-11.208-24.018-20.586-29.05 1.144-3.205 11.894-11.437 11.894-11.437 7.32-2.973 13.725-3.888 20.587-3.43 5.947 1.143 9.15 3.66 10.522 7.09.686 5.719.457 10.293-2.06 13.721-4.116 3.434-8.92 2.062-14.18.686 1.143 13.953 8.92 20.361 22.873 19.446 11.894-3.202 14.639-11.894 14.639-20.815-1.372-11.894-8.006-17.155-15.783-21.272 47.12-6.408 21.273-41.63.686-19.443 15.326-1.372 8.464 11.208.458 13.492-2.745.918-9.15 3.206-14.182 2.977 3.431-3.205.458-5.947-4.346-7.777-2.058-2.059 7.091-5.722 12.352-7.09-4.346-.687-10.98-1.145-17.384 2.512-2.516 2.52-3.431 3.663-3.431 6.408 1.601 2.513 4.575 1.601 6.862 2.97.229 1.147 0 1.605-1.372 2.52-2.745-.23-4.804-.23-6.862.457 4.346-9.836-9.379-10.522-13.953-2.516 3.202-1.376 10.979-2.059 7.09 2.973-7.548 5.944-17.155 13.267-23.33 21.73-2.517 1.602-34.997 16.927-37.514 17.842-1.372.457-2.744 1.83-3.66 3.431l-6.861 4.803c7.777-9.835 13.266-23.105 16.011-38.199-23.789 25.39-38.199 24.015-53.982 27.22 12.352-4.575 29.736-11.669 38.2-21.962 32.937-47.577 29.964-52.835 85.547-69.078-46.891-9.604-90.122-4.572-112.767 69.536-4.804 10.753-13.267 13.956-21.73 12.812 34.768-10.98 13.724-48.035-12.123-11.894 11.665-8.238 17.155-.46 3.888 6.862-6.862 3.202-11.437 2.055-17.838.229 6.173-2.288 3.199-6.862 9.146-6.862-3.202-1.605-7.32-.922-12.81 4.803 1.373-3.889-1.83-4.803-6.175-3.889 1.601 1.602 2.745 3.432.229 5.261-4.572-2.058-25.39-8.234-36.827 19.214-.229.915-.686 3.203-.915 5.49-.457-2.287-.915-4.575-1.372-5.947-.458-.915-.915-2.059-1.373-2.974v10.98c.686 1.6 1.601 2.973 2.52 4.342v.919c.225-.23.225-.458.454-.458v-.229c7.32-11.436 12.123-28.134 27.677-26.762 15.097 2.745 3.202 22.188-6.633 8.006-12.123 17.38 8.463 35.454 26.762 15.554 17.613 11.434 32.938 15.097 45.747 13.496-32.938 16.923-64.961 24.471-96.527 24.703v67.249c61.53-1.373 121.688-23.103 171.324-57.413 13.038 6.176 26.762 8.006 40.715 7.548 26.305-1.372 47.578-15.783 58.1-43.692 3.888-10.064 5.718-20.354 10.75-29.504 5.261-3.202 10.064-2.745 15.097.455 11.894 11.668-5.033 21.504-17.156 18.985 15.326 17.616 40.03 8.466 38.657-12.578-2.059-10.521-11.208-13.266-21.501-14.87 19.671-13.264 33.853 5.95 30.193 25.85 3.888-6.405 5.947-12.81 6.405-18.3z" style="fill:#004557;stroke:#004557;stroke-width:3.1769" transform="matrix(1.14286 0 0 1.14286 0 0)"/><path d="M341.032 416.53v-10.98c-13.038-23.105-32.023-16.698-36.14-14.413-2.745-1.827-1.83-3.657 0-5.258-4.575-.686-7.548.457-5.947 4.117-5.947-5.49-10.065-5.718-13.267-4.117 5.947-.229 3.202 4.346 9.378 6.633-6.176 2.059-10.522 3.431-17.841.458-13.496-6.634-8.464-14.64 3.66-7.091-27.449-34.768-46.66 3.202-11.437 12.58-8.464 1.373-17.156-1.143-22.417-11.665-25.847-72.967-69.536-76.17-115.74-64.275 56.269 13.953 53.753 19.214 88.75 65.19 11.436 12.58 26.533 16.008 38.885 19.9-15.551-2.516-29.965-.229-54.897-24.707 4.575 19.903 13.724 36.372 26.762 45.293-3.66-1.83-7.548-3.66-11.205-5.49 1.14-4.345-2.062-8.691-5.264-9.835-2.516-.686-35.683-14.64-38.428-16.012-6.404-8.234-16.24-14.87-24.246-20.586-4.117-5.032 3.66-4.804 7.091-3.206-5.26-7.773-18.985-6.401-13.724 3.206-2.516-.686-4.575-.458-7.32-.229-1.143-.686-1.372-1.143-1.143-2.516 2.061-1.601 5.032-.69 6.404-3.202.229-2.745-1.143-3.889-3.66-6.176-6.404-3.66-13.266-2.745-17.384-1.601 5.261.912 14.64 4.117 12.81 6.404-5.032 2.059-7.777 5.033-4.118 8.006-5.032.458-11.436-1.601-14.41-2.287-7.777-2.062-15.55-14.41-.229-13.724-21.501-21.044-45.747 15.325 1.601 19.671-7.316 4.117-13.952 10.064-14.639 21.959.458 8.917 4.575 16.697 16.012 19.671 13.724.458 21.272-6.405 21.501-20.129-5.032 1.598-9.836 3.203-14.182 0-2.516-3.434-2.973-8.006-2.516-13.724 1.147-3.66 4.118-6.18 10.068-7.548 6.63-.687 13.492-.229 20.583 2.287.229.229 11.208 7.548 12.58 10.98-9.146 5.49-17.155 16.237-19.442 29.964-8.689 37.284-42.774 36.823-61.759 12.81-9.378-19.215-12.123-47.35-43.46-46.892-16.24.229-25.161 8.463-25.618 20.355v2.061c.228 6.405 2.744 13.725 7.548 21.273-4.346-19.9 8.692-39.572 29.05-27.452-10.294 2.062-19.214 5.261-20.816 16.015 0 20.815 24.933 29.05 39.114 10.522-11.894 3.202-29.278-5.718-18.07-17.842 4.804-3.666 10.065-4.349 15.097-1.372 5.718 8.92 8.006 18.985 12.352 29.05 11.894 27.22 33.856 40.715 60.157 40.715 13.496-.229 26.763-2.516 39.114-9.378 51.009 35.911 106.366 50.55 160.802 49.407V456.1c-32.48 0-64.272-7.78-96.755-21.73 14.181 3.66 31.565-.229 51.465-14.413 19.443 18.756 39.114-.23 26.076-16.924-9.15 14.64-21.958-4.117-6.859-7.777 13.493-1.601 19.44 10.75 26.073 21.273z" style="fill:#004557;stroke:#004557;stroke-width:3.1769" transform="matrix(1.14286 0 0 1.14286 0 0)"/><path d="M171.08 179.787c6.177 0 12.353.229 18.529.229l-.23-13.267c-7.09 3.431-12.808 8.231-18.298 13.038z" style="fill:#fff;stroke:none;stroke-width:3.1769" transform="matrix(1.14286 0 0 1.14286 0 0)"/><path d="M399.813 117.113v20.739h75.33V238.8h20.74v-30.498h15.553v-18.3H495.27v-21.958h15.555v-18.908h-15.86v-32.024h-46.661zm.304 32.024v124.431H496.191v-21.957h-75.029V149.137Z" style="fill:#004557;stroke:none;stroke-width:4.23587" transform="matrix(.85714 0 0 .85714 0 0)"/><path d="m378.774 221.188 9.607-10.525c14.41 13.27 23.56 31.798 23.56 52.384 0 39.8-33.853 72.281-75.255 72.281-41.401 0-75.254-32.48-75.254-72.28 0-19.9 8.463-37.971 22.187-51.009l10.065 10.293c-10.75 10.75-17.384 24.932-17.384 40.715 0 32.023 26.99 58.1 60.386 58.1s60.387-26.077 60.387-58.1c0-16.24-6.862-31.108-18.3-41.859zM368.71 447.867v4.346c2.287-.23 4.345-.915 5.718-2.288 1.372-1.604 2.058-3.66 2.058-6.176 0-2.287-.457-3.895-1.6-5.26-1.373-1.373-2.742-2.06-4.804-2.06-.458 0-.915 0-1.373.23v3.66c.915 0 1.602.228 2.06.914.685.686.914 1.601.914 2.745 0 1.144-.229 2.059-.915 2.745-.457.686-1.144 1.144-2.059 1.144zM368.71 428.424v4.117c.457 0 .914.229 1.372.458.229.457.457.915.686 1.6h5.032c0-1.829-.686-3.43-2.058-4.577-1.144-1.14-2.974-1.598-5.033-1.598z" style="fill:#004557;stroke:none;stroke-width:3.1769" transform="matrix(1.14286 0 0 1.14286 0 0)"/><path d="M368.71 432.541v-4.117c-2.745 0-4.804 1.14-6.405 3.202-1.373 2.059-2.288 5.032-2.288 8.692 0 3.889.915 6.634 2.288 8.69 1.372 2.06 3.43 3.205 6.176 3.205h.228v-4.346c-1.143 0-1.83-.23-2.287-.915-.686-.687-.915-1.602-.915-2.745 0-1.144.229-2.059.915-2.974.458-.686 1.372-.915 2.287-.915v-3.66c-.457 0-.915.23-1.369.458-.69.457-1.375 1.144-2.062 2.055v-.457c0-2.056.23-3.657.687-4.8.686-.915 1.375-1.373 2.516-1.373h.228zM347.666 442.834v4.346h2.973v4.575h5.032v-4.575h2.974v-4.346h-2.974v-14.181h-6.175l-1.83 2.973v6.634l2.973-4.575v9.15zM347.666 438.26v-6.634l-6.405 10.065v5.49h6.405v-4.347h-2.745zM330.968 448.095v4.118c2.745-.23 4.803-1.144 6.176-2.977 1.604-2.056 2.287-5.03 2.287-8.918 0-3.888-.683-6.862-2.059-8.92-1.372-2.062-3.66-2.974-6.404-2.974v4.117c.915 0 1.601.229 2.058.915.458.458.919 1.37.919 2.516 0 1.144-.232 1.83-.919 2.516-.457.683-1.143.912-2.058.912v3.892c.229-.229.686-.229 1.144-.458.686-.457 1.372-.915 2.058-1.83v.915c0 2.06-.225 3.66-.686 4.575-.686 1.144-1.601 1.601-2.516 1.601zM311.754 451.755v-16.93c-.458.461-1.144.919-2.059 1.376-.686.457-1.6.915-2.516 1.372v-5.264c.915-.225 1.83-.683 2.745-1.369.915-.69 1.83-1.376 2.745-2.287h4.346v23.102z" style="fill:#004557;stroke:none;stroke-width:3.1769" transform="matrix(1.14286 0 0 1.14286 0 0)"/><path d="M330.968 432.541v-4.117c-2.516 0-4.346.686-5.947 2.055-1.373 1.376-2.059 3.435-2.059 5.722 0 2.287.458 3.885 1.83 5.261 1.144 1.372 2.516 2.059 4.35 2.059.682 0 1.14-.23 1.826-.23v-3.89c-.915 0-1.598-.23-2.288-.913-.457-.686-.686-1.372-.686-2.516 0-.915.229-1.83.686-2.516.69-.686 1.373-.915 2.288-.915zM330.968 452.213v-4.118h-.229c-.686 0-1.144-.228-1.598-.686-.46-.229-.69-.915-.69-1.372h-5.26c0 1.83.686 3.428 2.058 4.574 1.144.915 2.974 1.602 5.261 1.602h.458z" style="fill:#004557;stroke:none;stroke-width:3.1769" transform="matrix(1.14286 0 0 1.14286 0 0)"/><path d="M507.324 462.048c-108.193 76.398-228.05 70.909-322.748 8.921 16.698-13.041 26.763-28.363 33.625-44.832 83.489 48.034 172.696 45.976 253.897-8.921 7.549 16.698 18.07 32.02 35.226 44.832z" style="fill:#fff;stroke:#004557;stroke-width:3.1769" transform="matrix(1.14286 0 0 1.14286 0 0)"/><path d="M169.251 325.032c12.584 2.977 24.246 6.408 31.569 13.04 6.859 6.863.912 8.693-3.434 6.863-8.464-9.15-16.24-14.182-28.135-19.903zM211.11 359.574c6.633 11.437 13.038 21.501 21.501 26.534 8.692 4.574 8.463-1.601 5.718-5.261-11.208-5.49-18.298-11.437-27.22-21.273zM300.55 408.066c4.57 4.575 10.747 6.862 20.582 6.176-7.09 13.035-19.671 5.261-20.583-6.176zM269.895 394.113c-15.325-.686-18.985-23.33-2.058-16.472-11.666 2.52-2.517 12.126 2.058 16.472zM218.43 399.603c25.39 17.384 51.465 18.985 78.685 2.284-21.273 34.771-60.387 35.686-78.686-2.284z" style="fill:#fff;stroke:none;stroke-width:3.1769" transform="matrix(1.14286 0 0 1.14286 0 0)"/><path d="M231.467 411.726c19.672 7.548 38.2 8.003 54.668 0-24.017 17.384-32.709 15.097-54.668 0z" style="fill:#004557;stroke:none;stroke-width:3.1769" transform="matrix(1.14286 0 0 1.14286 0 0)"/><path d="M119.618 385.193c-20.36 15.096-5.95 41.401 16.466 24.017-18.528-.229-23.788-7.323-16.466-24.017zM106.577 358.888c-12.123-1.144-13.267 5.947-4.117 14.407-2.516-8.231-1.144-11.89 4.117-14.407z" style="fill:#fff;stroke:none;stroke-width:3.1769" transform="matrix(1.14286 0 0 1.14286 0 0)"/><path d="M147.064 399.374c.228-1.372 1.83-3.202 3.43-2.516 2.749-.686 4.575.915 4.575 3.66 0 2.516-2.516 3.431-4.574 3.431-3.889 1.144-8.692-6.633-6.176-9.15.457 2.517.228 4.118 2.745 4.575zM136.313 427.277c10.98 2.059.229 15.557-5.49 6.18-3.66-6.634 9.378-11.209 10.98-17.385 1.604 5.719-6.176 8.463-5.49 11.205z" style="fill:#004557;stroke:none;stroke-width:3.1769" transform="matrix(1.14286 0 0 1.14286 0 0)"/><path d="M513.957 317.03c-12.58 3.659-24.017 7.544-30.88 14.41-6.633 7.548-.457 8.92 3.66 6.862 8.235-9.607 15.326-15.097 27.22-21.273zM473.7 353.395c-5.948 11.669-11.895 22.42-20.13 27.68-8.462 5.261-8.691-1.143-5.718-4.803 10.751-6.18 17.384-12.352 25.848-22.877zM386.55 406.465c-4.345 4.797-10.292 7.32-20.128 7.091 7.548 12.58 19.903 4.346 20.129-7.09zM416.287 390.911c15.325-1.372 18.07-24.246 1.372-16.469 11.894 2.059 3.202 12.123-1.372 16.47zM468.439 393.885c-24.93 18.756-51.009 21.501-78.686 6.404 22.874 33.625 62.217 32.481 78.686-6.404z" style="fill:#fff;stroke:none;stroke-width:3.1769" transform="matrix(1.14286 0 0 1.14286 0 0)"/><path d="M456.087 406.465c-19.443 8.463-37.97 10.065-54.897 2.745 24.932 16.24 33.396 13.724 54.897-2.745z" style="fill:#004557;stroke:none;stroke-width:3.1769" transform="matrix(1.14286 0 0 1.14286 0 0)"/><path d="M569.769 374.67c21.273 13.725 7.777 40.716-15.097 24.704 18.3-1.143 23.332-8.692 15.097-24.703zM581.663 347.68c11.895-2.059 13.267 5.032 4.575 14.182 2.287-8.467.458-11.895-4.575-14.182z" style="fill:#fff;stroke:none;stroke-width:3.1769" transform="matrix(1.14286 0 0 1.14286 0 0)"/><path d="M543.236 389.767c-.458-1.372-2.059-2.744-3.66-2.287-2.974-.229-4.804 1.144-4.804 3.885.458 2.52 2.974 3.435 5.033 3.435 4.117.915 8.234-7.32 5.718-9.607-.229 2.516 0 4.117-2.287 4.574zM555.359 417.216c-10.98 2.742.457 15.554 5.49 5.947 3.202-6.633-9.836-10.75-11.895-16.93-1.372 5.95 6.862 8.238 6.405 10.983zM394.1 424.764c4.803 6.176 10.292 8.463 18.298 10.061-9.607 4.575-16.466.69-18.299-10.06zM293.913 426.594c-4.346 6.405-9.836 9.15-17.613 10.98 9.835 4.345 16.469-.23 17.613-10.98z" style="fill:#004557;stroke:none;stroke-width:3.1769" transform="matrix(1.14286 0 0 1.14286 0 0)"/><path d="M165.134 402.348c2.062-2.059 4.117-2.974 6.633-2.516 13.496 5.49 26.762 11.205 40.029 16.926 2.516 2.516 2.516 5.261.686 9.607-13.267 22.87-21.04 36.598-39.343 45.519-24.246 11.894-64.046 8.692-86.233-26.991 13.038 17.841 53.295 27.22 65.876-16.24 3.66-13.267 5.718-18.528 12.352-26.305zM525.165 393.885c-1.83-1.833-4.117-2.062-6.633-1.144-13.038 6.633-25.847 13.492-38.657 20.129-2.287 2.287-2.287 5.26.23 8.92 14.41 22.188 23.56 35.684 42.544 43.003 24.933 10.065 64.504 3.885 83.947-33.395-12.123 18.527-56.04 29.503-68.393-11.67-3.888-12.577-5.718-17.38-13.038-25.843zM82.56 327.551c8.466 12.58 22.416 22.188 42.32 21.498 15.093 1.833 30.19 4.804 43.914 13.953.914 1.833 1.372 4.35.914 6.865-.686 1.83 0 2.285 2.291 1.373 2.284-.458 4.572-.458 7.088-.686 1.143.457 2.058 1.143 2.973 2.284-.686 4.803-1.372 9.607-1.83 14.413-1.143 2.059-.457 3.431 1.83 3.886 4.12 1.143 8.235 2.061 12.58 3.205 2.288 1.373 3.203.686 2.746-2.52-1.83-10.518-4.575-21.04-11.895-28.591-7.09-8.689-36.369-19.443-52.38-24.243-20.358-3.202-22.188-9.607-21.044-11.437 9.835-26.762 15.783-48.263-4.346-63.589-3.66 1.601-7.549 2.974-11.434 4.114 2.284 22.877-1.604 42.549-13.727 59.475zM599.734 318.173c-7.549 12.81-21.273 22.874-41.86 23.102-14.867 2.513-29.735 6.176-43.002 15.783-.915 2.059-1.143 4.346-.686 6.862.686 1.83 0 2.288-2.287 1.601-2.288-.228-4.575-.228-7.091-.457-1.144.457-2.059 1.372-2.745 2.516.686 4.572 1.601 9.378 2.287 14.178 1.144 2.062.687 3.663-1.6 4.12-4.118 1.145-8.235 2.288-12.353 3.66-2.287 1.373-3.202.687-2.973-2.287 1.372-10.75 3.66-21.272 10.522-29.278 6.862-8.924 35.683-21.044 51.465-26.305 20.358-4.117 21.73-10.522 20.587-12.351-10.98-26.534-17.842-47.806 2.058-63.592 3.66 1.375 7.549 2.516 11.209 3.662-1.373 22.645 3.202 43.003 16.469 58.786z" style="fill:#fff;stroke:none;stroke-width:3.1769" transform="matrix(1.14286 0 0 1.14286 0 0)"/><path d="M597.446 13.038c-1.372 7.777-4.346 14.868-9.607 21.044-4.574-5.261-8.92-9.836-14.181-8.235 3.888 3.66 4.803 8.006 5.947 12.123a17568.016 17568.016 0 0 0-36.598 28.364c-11.666 1.143-16.24 8.234-15.554 16.469 5.032-3.889 10.064-7.32 14.868-10.75 4.117.685 3.43.685 2.287 4.574-1.372 2.973-2.974 5.947-4.346 9.15 1.144-.458 2.287-.23 3.202-.23 10.065-8.237 13.953-12.809 27.449-10.521 11.894 2.513 16.926.915 33.853-11.437.686 1.83 1.372 3.43 2.058 5.032-12.351 8.918-19.9 12.81-35.683 13.267-1.6 4.803-2.973 9.607-4.574 14.636-3.203 6.636-12.81 16.472-27.677 24.478-17.384 9.378-31.337 28.134-25.161 53.295 2.287 0 4.574-.228 6.862-.228 9.607-13.953 13.495-15.554 29.735-21.959.23 2.055.458 4.117.687 6.176-14.868 4.571-17.842 8.463-26.076 21.501-15.326.686-30.651 1.144-45.976 1.83-7.32.454-14.868 1.14-22.188 1.372-3.202.458-6.633 1.144-10.064 1.602-2.745.915-3.2 3.43-2.974 5.032.915 21.495 2.516 41.859 5.718 61.987 2.745 10.065 13.267 20.587 16.698 18.3 2.974-2.291 2.745-19.9.229-19.9-3.431-.23-3.66 4.574-7.09 2.515-2.06-4.346 1.372-11.436-.687-12.123-1.601-.228-2.745 2.974-4.804-.46-.686-12.12-1.372-24.243-1.83-36.37 1.373-3.885 3.66-5.032 5.948-5.715 25.618-7.32 38.656.683 63.36 6.634 24.246 5.718 39.114 8.92 61.53-7.777 2.059 1.143 3.889 2.516 5.718 3.888-21.043 16.698-32.938 18.528-67.706 11.666 1.83 11.208 37.056 36.823 65.648 40.486 3.43-9.378 8.463-17.155 15.783-21.73.686 2.288 1.6 4.575 2.058 7.091-7.09 6.176-7.777 9.607-11.894 17.384-6.176 18.07-2.287 37.513 8.692 52.38 8.463 11.438 11.894 19.672 5.718 40.258l-10.979 34.997c-2.974 9.836-4.575 25.39-9.378 29.736-10.293 5.032-15.326 7.316-19.9 16.694-1.373 2.52-1.373 4.12 1.372 3.435 7.32-1.601 13.953-2.288 19.9-2.288 2.288-2.058-2.745-8.005.686-14.181.687-3.889 7.32-2.288 8.692-4.804-.914-3.43-4.574-5.032-2.973-10.525 15.783-25.386 30.422-51.691 44.604-78.91-2.288-5.033-5.948-8.922-2.06-16.016 7.55-9.607 16.927-18.756 23.79-29.05 2.744-8.691 2.744-17.151.686-25.386 15.783-17.613 15.783-28.592 7.548-50.096-5.49-14.179.458-27.674-.915-46.66-.915 2.745-2.059 4.118-3.43 4.804 2.058-15.097-5.033-39.8-14.869-48.72 2.288 12.122 2.288 23.101 3.889 32.022-2.059-.915-2.974-3.43-4.804-5.26.458 11.665 4.346 23.788 9.378 36.826-2.516-2.062-4.346-5.261-6.175-8.463-.458 4.346.686 6.401 2.058 10.064 5.032 8.006 9.607 15.322 13.267 24.475 8.006 20.357 8.234 35.454-6.633 48.72-5.49-18.07-21.273-33.623-40.716-41.4-16.469-6.408-31.565-7.095-34.768-35.23-1.6-14.406 6.634-17.609 3.203-28.363 3.43-.911 5.718.919 6.862 5.722.457-2.974-.686-5.49-2.059-8.006 5.032 0 7.32 1.827 8.92 4.346 2.517-7.32 2.746-16.698 2.746-26.304 3.202 2.287 4.803 4.571 5.032 8.005 3.889-3.66 5.49-10.064 5.718-18.756 2.288.915 3.203 2.059 3.431 4.117 2.745-3.202 2.06-14.41.687-27.22 2.745 1.144 3.43 2.06 4.346 3.889 1.143-10.293-.915-21.044-4.575-31.337 1.83.458 2.974 1.83 4.803 2.974-1.6-8.235-3.66-16.47-9.378-24.246 1.144-.23 3.889.915 4.804 1.598-3.66-7.088-8.692-12.35-18.07-14.408.914-3.66.914-10.75-4.118-11.894z" style="fill:#fff;stroke:none;stroke-width:3.1769" transform="matrix(1.14286 0 0 1.14286 0 0)"/><path d="M571.599 54.668c3.66-4.117 6.862-5.722 9.836-8.92 3.888 0 4.346 6.861 2.287 6.861-3.66 1.83-14.182 6.173-12.123 2.06z" style="fill:#5c5d5e;stroke:none;stroke-width:3.1769" transform="matrix(1.14286 0 0 1.14286 0 0)"/><path d="M228.723 482.863v5.033c5.264 1.598 12.58 2.287 16.697-3.203 0 0 1.83-2.973.23-4.803-.001 0 2.058.457 3.43-2.29l11.437-24.015-6.176-2.974-2.287 4.575-6.405-2.973-2.284 4.574 6.63 2.974-1.827 4.117-6.407-3.202-2.06 4.575 6.406 2.97-1.83 3.663s-.683 2.745-2.288 1.601c0 0-4.346-4.346-10.75-7.32 0 0-.915-.457-2.516-.914v5.032c.228 0 .46.229.46.229 6.173 2.744 9.836 7.545 8.46 10.521-1.143 2.288-4.574 2.745-8.92 1.83zM228.723 454.271v5.49c13.038-2.745 18.07-10.983 18.07-10.983l-18.07-8.692v6.637l8.463 3.888c-2.97 1.83-5.719 2.974-8.463 3.66zM228.723 446.723v-6.637l-6.863-3.199-2.516 5.49z" style="fill:#004557;stroke:none;stroke-width:3.1769" transform="matrix(1.14286 0 0 1.14286 0 0)"/><path d="M228.723 459.76v-5.489c-8.918 2.745-15.097.458-15.097.458s-3.2.228-3.2 2.516c.455 2.745 3.429 2.973 3.429 2.973 5.721.683 10.753.458 14.868-.457zM228.723 470.283v-5.032c-5.261-1.833-17.384-4.804-21.044 1.83 0 0-.229.682-.458 2.058v1.144c.229 3.43 2.745 9.607 14.868 15.096 0 0 2.745 1.598 6.634 2.517v-5.033c-1.373-.228-2.974-.915-4.575-1.6-5.947-2.746-9.607-7.32-8.006-10.294 1.144-2.977 6.862-3.206 12.58-.686zM285.45 498.875v6.176l17.612 4.803 4.803-17.612-2.058-.687s1.372.455 2.058-2.062l2.52-10.06 3.656.914s1.83.458 2.516-2.29c0 0 1.144-2.056-1.143-2.513l-3.66-.915 1.83-6.637-6.176-1.598-2.745 10.519s-1.83 3.434-3.885 2.748l-15.329-4.117v6.176l13.038 3.43s2.062.687 3.66-.689c0 0 0 4.35-2.974 5.264l-13.724-3.66v6.177l13.724 3.885-1.6 5.95z" style="fill:#004557;stroke:none;stroke-width:3.1769" transform="matrix(1.14286 0 0 1.14286 0 0)"/><path d="M285.45 481.72v-6.176l-9.608-2.516 3.431-12.58-6.862-1.834-3.66 13.956s-1.83 4.117 2.06 5.258zM285.45 492.242v-6.176l-16.927-4.575-3.889 14.636s-.915 3.205 2.516 4.12l18.3 4.804v-6.176l-13.954-3.66 1.601-6.176zM326.85 469.597h18.07s2.974.228 2.974 2.744c0 0 0 2.517-2.973 2.517h-11.437v27.677h12.352s3.66.686 3.888-2.745V468.22h6.405v14.642h5.032v-14.642h6.633v40.26s0 3.203-2.973 3.66c-1.83.23-3.66-1.372-3.66-3.66l.229-20.585h-5.261v20.586s-.458 3.43-3.202 3.43c0 0-2.974.687-3.203-3.43v-1.601s-1.143 1.372-3.202 1.6h-15.325s-4.346.23-4.346-3.43zM395.932 491.784v5.255l25.387-6.856 2.059 6.856c.914 2.98 3.66 2.065 3.66 2.065 2.973-.687 2.744-3.66 2.744-3.66l-3.43-11.894-2.288.686c1.6-1.83.686-4.346.686-4.346l-2.516-9.836 2.29-.457c.455-.23 2.513-.919 1.827-3.66-.686-2.745-3.431-2.059-3.431-2.059l-2.287.686-2.288-8.463-6.176 1.601 6.405 24.246c-.229 3.66-2.059 4.343-2.059 4.343z" style="fill:#004557;stroke:none;stroke-width:3.1769" transform="matrix(1.14286 0 0 1.14286 0 0)"/><path d="M395.932 484.461v5.722c1.598-.229 2.513-.458 2.513-.458 12.58-3.434 12.123-14.867 12.123-14.867-1.83-6.637-8.234-7.778-8.234-7.778l3.43-.914c1.144-.23 2.288-1.144 1.83-2.974-.686-1.601-2.973-1.372-2.973-1.372l-8.689 2.287v7.32c3.886-.458 7.545 1.372 8.232 4.345.915 3.432-2.059 7.091-6.634 8.464-.686.225-1.143.225-1.598.225z" style="fill:#004557;stroke:none;stroke-width:3.1769" transform="matrix(1.14286 0 0 1.14286 0 0)"/><path d="M395.932 471.426v-7.32l-.232.23-.915-3.435-6.404 1.605.915 3.43-9.15 2.51c-2.058.464-1.83 2.523-1.83 2.523.687 2.287 2.745 1.83 2.745 1.83l2.974-.686c-3.889 2.973-2.745 9.835-2.745 9.835 2.974 8.235 10.522 8.692 14.642 8.235v-5.722c-4.12.46-7.551-1.14-8.466-4.343-.915-3.43 2.058-7.09 6.633-8.234.686-.229 1.144-.229 1.833-.458zM395.932 497.039v-5.255l-10.296 2.745 1.372 4.803zM428.867 448.095l32.71-15.325s2.973-1.83 5.26 3.202l11.209 24.018s2.058 3.202.686 5.26l.686-.228s2.745-1.144 3.66.915c.915 2.055-.458 3.66-1.373 4.346l-35.454 16.694-2.741-5.486 6.172-2.745-7.777-16.469 5.947-2.745 7.549 16.47 6.862-3.203-7.777-16.47 5.947-2.744 7.777 16.47 3.431-1.377s2.745-1.372.915-5.029l-10.98-23.563-29.735 13.956z" style="fill:#004557;stroke:none;stroke-width:3.1769" transform="matrix(1.14286 0 0 1.14286 0 0)"/><path d="M504.122 174.069c-6.405.457-12.58.686-18.757 1.143v-9.835c1.144-.23 2.516-.23 4.117-.23 5.49 2.517 10.294 5.49 14.64 8.922zM205.395 186.42c4.803 0 9.378.23 13.95.23 3.43.457 6.861.685 10.292 1.143 2.745.915 3.432 3.202 3.203 5.032 0 21.273-.915 41.856-3.203 61.988-2.287 10.064-12.58 21.044-15.782 18.985-3.203-2.059-3.889-19.671-1.144-19.9 3.431-.458 3.888 4.343 7.32 2.287 1.6-4.346-2.06-11.437 0-12.352 1.6 0 2.973 3.203 4.803-.228.229-12.352.229-24.475.457-36.598-1.6-3.889-3.888-5.032-6.404-5.493-4.804-1.37-9.378-1.827-13.492-2.056-5.036-.457-10.068-.228-14.872.915-10.75 2.059-20.815 6.405-34.539 10.52-24.017 6.636-38.656 10.295-61.759-5.259-2.058 1.373-3.888 2.516-5.718 4.118 21.733 15.782 33.853 17.155 68.163 8.92-1.372 11.205-35.454 38.2-63.817 43.232-3.889-9.379-9.378-16.927-16.698-21.273-.686 2.516-1.372 4.804-1.83 7.32 7.549 5.947 8.235 9.15 12.58 16.697 7.092 17.842 3.89 37.513-6.404 52.61-8.006 11.894-11.208 20.357-3.888 40.715 3.888 11.437 8.005 22.874 12.123 34.307 3.66 9.84 5.947 25.393 10.75 29.282 10.525 4.575 15.558 6.862 20.59 16.011 1.369 2.513 1.598 4.118-1.147 3.66-7.32-1.604-13.953-1.833-20.129-1.604-2.287-2.056 2.516-8.231-1.144-14.179-.915-3.888-7.548-2.058-9.15-4.346.916-3.66 4.576-5.26 2.749-10.753-16.93-24.7-32.484-50.548-48.038-76.853 2.287-5.032 5.718-9.15 1.601-16.24-8.006-9.15-17.613-17.842-24.932-27.91-3.202-8.46-3.66-17.151-1.83-25.386-16.47-16.926-16.927-27.906-9.607-49.636 4.803-14.639-1.601-27.677-1.144-46.89 1.144 2.744 2.288 4.117 3.66 4.803-2.516-15.097 3.431-40.03 12.81-49.407-1.83 12.12-1.373 23.33-2.517 32.252 1.83-1.147 2.745-3.66 4.575-5.49 0 11.665-3.431 24.017-8.006 37.284 2.516-2.287 4.346-5.49 5.947-8.92.687 4.568-.457 6.633-1.6 10.292-4.576 8.235-8.922 15.783-12.124 25.161-7.32 20.587-6.633 35.68 8.463 48.264 4.804-18.528 19.9-34.543 39.114-43.003 16.012-7.322 31.109-8.463 33.167-36.826 1.144-14.41-7.32-17.156-4.343-28.138-3.663-.683-5.721 1.147-6.636 5.95-.686-2.745.457-5.493 1.83-8.006-5.032.23-7.32 2.056-8.692 4.575-2.745-7.09-3.66-16.24-3.889-26.076-3.202 2.288-4.574 4.8-4.803 8.235-3.889-3.434-5.947-9.607-6.405-18.528-2.287 1.144-3.202 2.287-3.202 4.117-2.974-2.745-2.745-14.181-2.059-26.994-2.516 1.376-3.202 2.062-4.117 4.12-1.601-10.293.229-21.043 3.431-31.565-2.059.457-3.202 2.059-4.803 3.202 1.143-8.463 2.973-16.697 8.234-24.703-1.144 0-3.66 1.14-4.575 1.83 3.431-7.091 8.006-12.58 17.384-15.097-1.143-3.431-1.372-10.75 3.66-12.123 1.601 7.777 4.804 14.64 10.522 20.815 4.35-5.49 8.463-10.293 13.727-9.15-3.663 4.118-4.349 8.464-5.264 12.581 12.352 8.92 24.933 17.842 37.513 26.762 11.666.686 16.698 7.549 16.24 15.783-5.032-3.431-10.29-6.862-15.322-10.064-3.891.915-3.205.915-2.062 4.803 1.602 2.742 3.203 5.719 4.804 8.692-1.144-.229-2.287-.229-3.202 0-10.522-7.777-14.41-12.352-27.903-9.378-11.898 2.973-16.701 1.83-34.314-9.836-.686 1.601-1.144 3.431-1.83 5.032 12.58 8.232 20.587 11.895 36.144 11.666 1.827 4.803 3.428 9.607 5.258 14.41 3.43 6.634 13.498 16.012 28.592 23.332 17.841 8.692 32.484 26.762 27.448 52.152h-6.862c-10.293-13.496-13.953-14.868-30.419-20.587a4073.03 4073.03 0 0 1-.69 6.176c15.097 3.889 18.3 7.777 26.992 20.358h38.885z" style="fill:#fff;stroke:none;stroke-width:3.1769" transform="matrix(1.14286 0 0 1.14286 0 0)"/><path d="M99.486 63.131c-4.117-3.888-7.09-5.49-10.522-8.234-3.66 0-3.888 6.862-1.83 6.862 3.66 1.372 14.41 5.49 12.352 1.372z" style="fill:#5c5d5e;stroke:none;stroke-width:3.1769" transform="matrix(1.14286 0 0 1.14286 0 0)"/><path d="m457.23 291.182-6.862-1.601-12.809 1.83.915-4.35 8.463-.683-7.09-4.803 1.143-4.12 10.293 8.008 6.862 1.827zM450.597 307.422l-14.41-6.862-1.83 3.889-2.745-1.373 5.49-11.665 2.745 1.372-1.83 4.111 14.41 6.868zM444.193 318.173l-16.24-10.065 2.058-3.202 16.24 10.065zM429.096 328.009l2.745-2.977.229.228c.914.69 1.6.919 1.83.919.686.228 1.143-.23 1.6-.919.458-.457.687-.911.458-1.369 0-.686-.229-1.143-.686-1.372-.686-.686-2.059-.458-3.889 0l-.457.229c-.915.228-1.83.686-2.288.686-.686.229-1.143.457-1.372.457h-2.287c-.687-.228-1.373-.686-2.059-1.143-1.144-.915-1.83-2.06-1.83-3.431-.229-1.602.229-2.974 1.373-4.346 1.143-1.602 2.516-2.517 3.888-2.745 1.144 0 2.516.228 3.889 1.372l.457.229-2.516 2.973c-.686-.457-1.372-.689-1.83-.689-.686-.229-1.144.232-1.601.69-.458.457-.458.914-.458 1.372 0 .457.458 1.144.915 1.372.687.686 2.517.458 4.575-.457.686-.229 1.373-.458 1.601-.458 1.373-.457 2.516-.69 3.431-.69.687 0 1.83.462 2.516.919 1.373 1.144 2.288 2.516 2.288 3.889 0 1.372-.458 3.202-1.83 4.803s-2.516 2.516-3.889 2.516c-1.143.229-2.516-.229-4.117-1.372l-.229-.229c0-.229-.228-.229-.457-.457zM416.287 330.753v6.176l4.803 5.49 2.974-2.516-5.032-6.176 1.143-.915c.686-.457 1.373-.686 1.601-.686.458.229 1.373.457 1.83 1.372.229 0 .686.458 1.144.912a38.508 38.508 0 0 0 2.516 2.748l3.202-2.748c-.457-.454-1.143-.683-1.6-1.14-.23-.23-.916-.915-1.373-1.602l-.229-.228-.457-.458c-.915-1.144-2.06-2.059-2.745-2.059-.458-.228-1.373 0-2.288.458.458-.686.687-1.601.458-2.287 0-.915-.458-1.834-1.601-2.974-1.144-1.372-2.516-2.287-3.66-2.287-.229 0-.229.228-.686.228v3.889h.228c.458 0 1.144.457 1.602 1.144.686.686 1.143 1.372.915 1.83 0 .686-.458 1.372-1.373 2.058l-.686.458zM416.287 325.95v-3.889c-.915.23-2.059.915-3.431 2.059l-4.118 3.889 7.549 8.92v-6.176l-2.516-2.973.686-.686c.686-.687 1.372-1.144 1.83-1.144zM408.51 350.425l-9.836-16.47 8.692-5.26 1.601 2.516-5.26 3.199 2.287 3.892 4.803-2.974 1.601 2.516-4.803 2.974 2.745 5.032 5.718-3.431 1.372 2.516zM396.615 356.372l-12.809-15.325 3.66-1.602 6.176 8.006c.915 1.373 1.83 2.288 2.29 3.202.683.687 1.14 1.373 1.598 1.83-.686-.915-.915-2.058-1.372-2.973-.226-1.144-.458-2.059-.686-2.977l-2.288-10.061 3.66-1.605 3.892 19.443zM384.721 360.49l-5.718-18.071 3.66-1.372 5.947 18.298zM365.965 365.521l-4.575-18.756 5.49-1.144 5.49 8.921c.914 1.144 1.372 2.059 1.83 3.202.685.915 1.372 1.83 1.829 2.745-.229-.686-.686-1.601-.915-2.516-.229-.686-.457-1.601-.686-2.745l-2.745-10.754 3.66-.686 4.117 18.531-5.032 1.14-5.947-9.38c-.458-.684-1.14-1.367-1.601-2.282-.458-1.144-1.144-2.287-1.83-3.43.228 1.143.686 2.058.915 2.973.228.915.457 1.826.686 2.284l2.745 10.982zM358.874 346.994l1.143 12.123c.23 2.745-.228 4.571-1.143 5.718-.915 1.373-2.516 2.059-4.804 2.287-2.287 0-3.888-.228-5.032-1.372-1.144-1.144-1.83-2.748-2.059-5.032l-1.143-12.58 3.888-.23 1.144 11.437c.229 2.288.457 3.657.915 4.115.457.46 1.144.689 2.059.689.914-.229 1.6-.46 1.83-1.147.228-.683.457-2.055.228-4.114l-.915-11.437zM311.068 365.064l1.83-18.985 6.176.686 1.372 11.894c0 .458.229.915.229 1.601-.229.687 0 1.602 0 2.513 0-.683.228-1.369.228-2.055.23-.686.458-1.373.687-2.059l3.66-11.208 6.404.686-2.059 18.986-3.66-.458 1.373-13.041c.229-.912.229-1.827.458-2.513 0-.686.228-1.372.457-2.062l-5.947 17.159-3.66-.23-2.287-18.298c-.229 1.144-.229 2.973-.458 4.803h.229l-1.14 13.038zM301.232 355v2.973l1.83.458v4.342l4.117 1.147-.457-19.903-5.032-1.14-.458.911v6.865l1.83-3.66v8.464zM301.232 350.653v-6.865l-9.378 16.244 3.888.915 2.059-3.889 3.431.915v-2.974l-2.059-.457zM275.385 353.166l7.09-17.61 5.033 2.06-.458 10.521c0 1.144 0 2.516-.228 3.66 0 .915 0 2.281-.226 3.202.226-.689.454-1.604.683-2.516.458-.686.686-1.6 1.144-2.744l3.888-10.294 3.203 1.373-6.862 17.613-5.033-1.83.23-11.208c.228-.69.228-1.83.228-2.745.229-1.147.229-2.516.457-3.889-.457 1.144-.686 2.059-1.143 2.974-.23.915-.458 1.83-.687 2.284l-3.888 10.525zM276.071 341.961l-5.032 8.464c-1.144-.458-2.288-.915-2.974-1.376-.915-.454-1.6-.683-2.287-1.14-.915-.458-1.83-1.144-2.287-1.602a3.569 3.569 0 0 1-1.373-1.833c-.229-.911-.229-2.284 0-3.427.46-1.144 1.373-2.974 2.745-5.49.915-1.83 1.83-2.974 2.52-3.889.682-.686 1.368-1.372 2.055-1.83.915-.228 1.83-.457 2.748-.228.911 0 2.055.457 3.199 1.143 1.604.915 2.745 2.288 2.973 3.428.458 1.605.23 3.206-.686 4.807l-.229.229-3.43-2.059.228-.229c.458-.915.915-1.833.686-2.29 0-.683-.457-1.37-1.143-1.598-.687-.458-1.598-.458-2.288.228-.686.458-1.83 2.06-3.43 4.575-1.602 2.745-2.288 4.575-2.517 5.49 0 .912.686 1.601 1.833 2.287.226.229.455.229.683.229.229.229.686.229 1.144.457l2.059-3.66-1.83-1.146 1.372-2.513zM245.649 331.668l12.58-14.41 3.89 3.66-3.89 9.835c-.225 1.144-.686 2.288-1.372 3.203-.457.911-.915 2.058-1.372 3.202.457-.686.915-1.601 1.6-2.29.69-.687 1.145-1.37 1.83-2.285l7.092-8.463 2.744 2.516-12.58 14.41-3.889-3.43 3.889-10.522c.457-.687.686-1.608 1.144-2.52.46-1.14.915-2.513 1.6-3.428-.685.687-1.372 1.602-1.83 2.288-.685.686-1.143 1.598-1.6 1.827l-7.088 8.695zM256.857 316.111l-9.607 7.323c-2.058 1.598-3.885 2.516-5.26 2.284-1.602 0-2.971-1.144-4.347-2.97-1.372-1.602-2.058-3.203-1.83-4.807.458-1.598 1.373-2.97 3.206-4.343l9.604-7.78 2.516 3.205-8.921 6.86c-1.601 1.375-2.516 2.519-2.745 2.976-.229.686 0 1.598.458 2.287.457.687 1.372.915 1.83.915.914-.228 1.833-.686 3.43-2.058l9.15-7.094zM227.121 305.135l6.405-2.974 8.463-9.835 1.83 4.114-5.718 5.721 8.234-.686 1.833 3.889-13.04.225-6.177 3.206zM220.26 283.862l18.53-4.803.912 3.888-8.006 2.059 9.15 2.745 1.143 4.114-10.064-3.2-8.463 7.775-1.144-4.575 7.777-6.402-8.92 2.056z" style="fill:#fff;stroke:none;stroke-width:3.1769" transform="matrix(1.14286 0 0 1.14286 0 0)"/></svg>